<?xml version="1.0" encoding="UTF-8"?>
<svg version="1.1" xmlns="http://www.w3.org/2000/svg" width="512" height="512">
<path d="M0 0 C3.56311197 1.4610497 5.26621771 3.28935155 7.56933594 6.34204102 C28.82719214 34.73785802 28.82719214 34.73785802 59.57899666 49.55855656 C67.6432559 50.5560788 75.70348661 50.60834695 83.8125 50.3125 C84.53954636 50.28607044 85.26659271 50.25964088 86.01567078 50.23241043 C95.04943897 49.86782854 104.02649357 49.11741519 113 48 C112.90815933 48.69742813 112.81631866 49.39485626 112.72169495 50.11341858 C111.60455899 59.07949508 110.91443632 68.03766243 110.5625 77.0625 C110.5199666 78.14236679 110.5199666 78.14236679 110.47657394 79.24404907 C109.82537273 99.01743293 112.45107621 113.54304475 126.08173943 128.40544319 C129.7492625 132.27966029 133.60466034 135.92510355 137.5625 139.5 C138.12366138 140.00723225 138.68482277 140.51446449 139.26298904 141.03706741 C146.27336049 147.32624107 153.50549203 153.29286415 161 159 C160.62875 159.9075 160.2575 160.815 159.875 161.75 C158.69640701 164.88097015 158.69640701 164.88097015 159.875 167.375 C160.24625 167.91125 160.6175 168.4475 161 169 C160.54676865 169.43102524 160.09353729 169.86205048 159.62657166 170.30613708 C154.90893547 174.80232271 150.22705553 179.33350757 145.56420898 183.88647461 C143.82017732 185.58025534 142.06727096 187.26494809 140.30541992 188.94018555 C137.77207857 191.35204085 135.27260633 193.79493844 132.77734375 196.24609375 C131.98472641 196.98709824 131.19210907 197.72810272 130.37547302 198.49156189 C126.46166622 202.25000238 126.46166622 202.25000238 124.69190979 207.1947937 C124.93065152 209.54604922 125.41432296 211.71144322 126 214 C126.26184712 215.60461739 126.50759724 217.21193109 126.73852539 218.82128906 C126.86867538 219.65698425 126.99882538 220.49267944 127.13291931 221.35369873 C129.12112901 234.51128602 129.5150722 247.4606032 129.4375 260.75 C129.43479095 261.8432962 129.43208191 262.93659241 129.42929077 264.0630188 C129.3681271 280.35770588 128.72753701 296.07131617 125 312 C124.81276367 312.84288574 124.62552734 313.68577148 124.43261719 314.55419922 C123.17831544 320.10973779 121.6838684 325.56016638 120 331 C119.75942871 331.7847168 119.51885742 332.56943359 119.27099609 333.37792969 C114.48237095 348.68305314 108.21509138 364.09825075 99.69921875 377.73046875 C97.77164132 381.43939359 97.5364229 383.84778989 97.5 388 C96.49142301 409.80243029 87.0112499 425.66686084 71.6015625 440.2734375 C58.81423062 451.36145617 42.37762408 456.49014328 25.63542175 456.38768005 C24.55769432 456.39306559 23.47996688 456.39845113 22.36958104 456.40399987 C18.79338701 456.4181959 15.21756752 456.41119628 11.64135742 456.40405273 C9.06297002 456.40976069 6.48458514 456.4167266 3.90620422 456.42485046 C-2.34970339 456.4419744 -8.60551027 456.44289177 -14.86143521 456.43763756 C-19.95113343 456.43358221 -25.04080207 456.43505555 -30.13049889 456.44038582 C-30.85723753 456.44113424 -31.58397618 456.44188266 -32.3327372 456.44265376 C-33.80952083 456.44418538 -35.28630445 456.44572373 -36.76308807 456.44726873 C-50.58683556 456.46097089 -64.41052633 456.45557245 -78.2342725 456.44408352 C-90.85255875 456.43415609 -103.47069826 456.44708736 -116.08896188 456.47101771 C-129.07666195 456.49546119 -142.06429384 456.50500357 -155.05201644 456.49836498 C-162.33109059 456.49488406 -169.61005202 456.49702974 -176.88910866 456.51461601 C-183.73714416 456.53095707 -190.58489624 456.52607501 -197.43292427 456.50731087 C-199.93738503 456.50363841 -202.4418667 456.50669393 -204.94630814 456.51719666 C-227.84399971 456.6058446 -247.76407092 453.65717311 -264.92333984 437.19995117 C-277.68937023 424.44919638 -286.85407194 408.63125801 -287.14501953 390.1784668 C-287.31428901 381.99613568 -289.24314494 376.79827543 -293.6796875 369.8125 C-305.54851262 350.96734255 -311.31257623 328.51738423 -316 307 C-316.16129395 306.28602051 -316.32258789 305.57204102 -316.48876953 304.83642578 C-320.73609864 285.88151692 -320.32922438 266.32617179 -320 247 C-319.98114746 245.87899902 -319.98114746 245.87899902 -319.96191406 244.73535156 C-319.69454609 233.33674553 -317.60087149 222.36743713 -315.35131836 211.21972656 C-314.89578322 208.71608896 -314.89578322 208.71608896 -315 205 C-314.34 205 -313.68 205 -313 205 C-312.87753906 203.83082031 -312.75507813 202.66164062 -312.62890625 201.45703125 C-309.38156558 175.73244562 -293.65110207 145.24817466 -278 125 C-277.34 125 -276.68 125 -276 125 C-275.75894531 124.2884375 -275.51789063 123.576875 -275.26953125 122.84375 C-273.81092601 119.57647425 -271.98004756 117.24335103 -269.6875 114.5 C-268.92824219 113.5821875 -268.16898438 112.664375 -267.38671875 111.71875 C-265.02104383 109.02397137 -262.5599487 106.51027806 -260 104 C-258.93510723 102.93728973 -257.87136873 101.87342194 -256.80859375 100.80859375 C-250.05859375 94.05859375 -250.05859375 94.05859375 -248.44433594 92.44873047 C-247.27897017 91.27981896 -246.12747077 90.09709258 -244.98046875 88.91015625 C-204.40513231 49.7753643 -144.90623278 31.1144513 -89.46826172 32.02270508 C-76.0616646 32.41112744 -63.04219466 34.03619633 -49.87231445 36.53515625 C-48.4505188 36.76525391 -48.4505188 36.76525391 -47 37 C-46.33548325 37.18795639 -45.67096649 37.37591278 -44.98631287 37.56956482 C-41.30856422 38.39193422 -39.0277272 38.63219862 -35.74137878 36.61062622 C-33.28738169 34.44657424 -31.04741251 32.1712213 -28.80859375 29.78515625 C-27.97787857 28.9402916 -27.14716339 28.09542694 -26.29127502 27.22496033 C-23.64892787 24.52672919 -21.04348679 21.79581905 -18.4375 19.0625 C-16.65011362 17.22494705 -14.86042413 15.38963131 -13.06835938 13.55664062 C-8.68520528 9.06335768 -4.3318355 4.54274795 0 0 Z " fill="#FE8A47" transform="translate(335,32)"/>
<path d="M0 0 C3.45902834 2.87838801 6.74562455 5.89380977 10 9 C10.90298828 9.79083984 10.90298828 9.79083984 11.82421875 10.59765625 C21.8020166 19.69163984 28.47363772 32.4742176 33 45 C33.58394531 46.60875 33.58394531 46.60875 34.1796875 48.25 C37.52527179 58.60421709 38.23927656 69.19834561 39 80 C39.79019531 79.7834375 40.58039063 79.566875 41.39453125 79.34375 C62.45783983 74.14412182 82.31523812 76.79147801 101.13378906 87.79345703 C106.37319614 91.18083926 110.68879397 95.52985549 115 100 C115.99580078 100.94939453 115.99580078 100.94939453 117.01171875 101.91796875 C120.99688087 105.97477424 123.60189007 110.60984957 126.1875 115.625 C126.66944824 116.54671997 126.66944824 116.54671997 127.16113281 117.48706055 C132.84534311 129.08620012 134.68410745 140.61346362 134.5 153.4375 C134.49379639 154.11731934 134.48759277 154.79713867 134.48120117 155.49755859 C134.37440273 165.48027895 134.00459074 174.7088957 130 184 C129.73687012 184.61149902 129.47374023 185.22299805 129.20263672 185.85302734 C121.13077638 204.00215079 106.60000707 217.80400228 88.17719525 225.23303598 C79.70080966 228.21902575 71.58649617 229.44246114 62.63542175 229.38768005 C61.55769432 229.39306559 60.47996688 229.39845113 59.36958104 229.40399987 C55.79338701 229.4181959 52.21756752 229.41119628 48.64135742 229.40405273 C46.06297002 229.40976069 43.48458514 229.4167266 40.90620422 229.42485046 C34.65029661 229.4419744 28.39448973 229.44289177 22.13856479 229.43763756 C17.04886657 229.43358221 11.95919793 229.43505555 6.86950111 229.44038582 C5.77939315 229.44150845 5.77939315 229.44150845 4.6672628 229.44265376 C3.19047917 229.44418538 1.71369555 229.44572373 0.23691193 229.44726873 C-13.58683556 229.46097089 -27.41052633 229.45557245 -41.2342725 229.44408352 C-53.85255875 229.43415609 -66.47069826 229.44708736 -79.08896188 229.47101771 C-92.07666195 229.49546119 -105.06429384 229.50500357 -118.05201644 229.49836498 C-125.33109059 229.49488406 -132.61005202 229.49702974 -139.88910866 229.51461601 C-146.73714416 229.53095707 -153.58489624 229.52607501 -160.43292427 229.50731087 C-162.93738503 229.50363841 -165.4418667 229.50669393 -167.94630814 229.51719666 C-190.84399971 229.6058446 -210.76407092 226.65717311 -227.92333984 210.19995117 C-242.62589058 195.51499323 -250.27966617 178.60887059 -250.46875 157.68359375 C-250.4584375 156.36488281 -250.448125 155.04617188 -250.4375 153.6875 C-250.43379395 153.00268555 -250.43008789 152.31787109 -250.42626953 151.61230469 C-250.34883726 141.57426685 -250.02847484 132.34651811 -246 123 C-245.73687012 122.38850098 -245.47374023 121.77700195 -245.20263672 121.14697266 C-240.77754772 111.19740921 -234.74984958 103.56642119 -227 96 C-226.35546875 95.33484375 -225.7109375 94.6696875 -225.046875 93.984375 C-211.78595858 81.18470785 -193.67123304 76.42292989 -175.73510742 76.51367188 C-168.0202296 76.74618864 -161.21749319 78.28282609 -154 81 C-154.05800781 80.17242187 -154.11601562 79.34484375 -154.17578125 78.4921875 C-154.854405 60.53774208 -150.28505717 43.34420089 -141 28 C-140.32066406 26.87335938 -139.64132813 25.74671875 -138.94140625 24.5859375 C-124.89641667 2.99015536 -103.04474807 -12.17020591 -77.90966797 -17.9152832 C-50.83906529 -23.15014835 -21.93001798 -16.66803031 0 0 Z " fill="#FEFEFE" transform="translate(298,259)"/>
<path d="M0 0 C-0.95729916 1.12588014 -1.91587895 2.2506715 -2.875 3.375 C-3.40867187 4.00148438 -3.94234375 4.62796875 -4.4921875 5.2734375 C-7.72497273 8.97522784 -7.72497273 8.97522784 -10.67019653 9.24050903 C-11.80270844 9.23606781 -12.93522034 9.23162659 -14.10205078 9.22705078 C-15.38322784 9.22689972 -16.66440491 9.22674866 -17.98440552 9.22659302 C-19.38804274 9.21637895 -20.7916784 9.20594695 -22.1953125 9.1953125 C-23.62734785 9.19158291 -25.05938575 9.18873569 -26.49142456 9.18673706 C-30.26278717 9.17909627 -34.03399604 9.15944408 -37.80529785 9.1373291 C-41.65272949 9.11688019 -45.50018594 9.1077374 -49.34765625 9.09765625 C-56.89850764 9.0761985 -64.44923229 9.04205732 -72 9 C-71.89563126 9.69742813 -71.79126251 10.39485626 -71.68373108 11.11341858 C-70.40752261 20.07262599 -69.56366909 29.03054231 -69.0625 38.0625 C-69.02226715 38.78241119 -68.9820343 39.50232239 -68.94058228 40.24404907 C-68.02469969 58.81087287 -69.74847677 73.48061929 -82.46484375 87.71484375 C-86.58955732 92.21874741 -90.96645622 96.41138135 -95.5 100.5 C-96.0620174 101.00723225 -96.62403481 101.51446449 -97.20308304 102.03706741 C-104.23039488 108.33116077 -111.4824142 114.29687973 -119 120 C-117.62003883 123.19677091 -116.11041768 125.00526946 -113.4296875 127.20581055 C-108.76658354 131.15631359 -104.44801468 135.39028024 -100.125 139.70703125 C-99.31506592 140.51363693 -98.50513184 141.32024261 -97.6706543 142.15129089 C-95.97525779 143.84165913 -94.2811823 145.53335328 -92.58837891 147.22631836 C-89.98489807 149.82758911 -87.37349304 152.42073132 -84.76171875 155.01367188 C-83.1114911 156.66096955 -81.46173422 158.30873899 -79.8125 159.95703125 C-79.0282666 160.73407913 -78.2440332 161.51112701 -77.43603516 162.3117218 C-76.72108887 163.02974472 -76.00614258 163.74776764 -75.26953125 164.48754883 C-74.63635986 165.1192952 -74.00318848 165.75104156 -73.35083008 166.40193176 C-72 168 -72 168 -72 170 C-73.29093133 170.43966502 -74.58280836 170.87655299 -75.875 171.3125 C-76.70644531 171.59351563 -77.53789062 171.87453125 -78.39453125 172.1640625 C-80.00393394 172.68042258 -81.62552592 173.16205335 -83.26171875 173.5859375 C-106.7843428 179.73616518 -126.60781033 196.35737163 -138.88183594 217.03076172 C-148.04495353 233.16825223 -151.44945018 250.58410846 -152 269 C-152.76699219 268.7834375 -153.53398437 268.566875 -154.32421875 268.34375 C-174.77354358 263.21360579 -195.06997303 264.95764665 -213.421875 275.66796875 C-229.60398042 285.78396199 -240.7848779 301.75424831 -245.875 320 C-247.41548427 326.918003 -247.72012706 333.935621 -248 341 C-270.2413809 320.33675686 -279.43312791 270.51076467 -280.8125 241.875 C-280.92650114 238.58309096 -280.97227562 235.2936561 -281 232 C-281.01369629 231.03288086 -281.02739258 230.06576172 -281.04150391 229.06933594 C-281.13403045 222.04400738 -281.11967018 215.02489439 -281 208 C-280.98114746 206.87899902 -280.98114746 206.87899902 -280.96191406 205.73535156 C-280.69454609 194.33674553 -278.60087149 183.36743713 -276.35131836 172.21972656 C-275.89578322 169.71608896 -275.89578322 169.71608896 -276 166 C-275.34 166 -274.68 166 -274 166 C-273.87753906 164.83082031 -273.75507813 163.66164062 -273.62890625 162.45703125 C-270.38156558 136.73244562 -254.65110207 106.24817466 -239 86 C-238.34 86 -237.68 86 -237 86 C-236.75894531 85.2884375 -236.51789063 84.576875 -236.26953125 83.84375 C-234.81092601 80.57647425 -232.98004756 78.24335103 -230.6875 75.5 C-229.92824219 74.5821875 -229.16898438 73.664375 -228.38671875 72.71875 C-226.02104383 70.02397137 -223.5599487 67.51027806 -221 65 C-219.93510723 63.93728973 -218.87136873 62.87342194 -217.80859375 61.80859375 C-211.05859375 55.05859375 -211.05859375 55.05859375 -209.44433594 53.44873047 C-208.27897017 52.27981896 -207.12747077 51.09709258 -205.98046875 49.91015625 C-153.36559784 -0.83673108 -69.55952041 -18.37887802 0 0 Z " fill="#0090CE" transform="translate(296,71)"/>
<path d="M0 0 C1.79244141 0.51046875 1.79244141 0.51046875 3.62109375 1.03125 C17.00963045 5.0875518 28.53707028 11.63222396 39 21 C39.89332031 21.79921875 40.78664063 22.5984375 41.70703125 23.421875 C54.64898886 35.65790765 63.55869062 50.73660535 68 68 C68.27972656 68.99 68.55945313 69.98 68.84765625 71 C75.18119226 95.98064434 69.622298 121.91097849 57 144 C42.04458658 167.06584916 20.19261323 181.70946383 -6.46191406 187.92407227 C-14.88611787 189.62582363 -23.4523574 189.51348402 -32 189 C-33.25167969 188.9484375 -34.50335938 188.896875 -35.79296875 188.84375 C-40.12554289 187.70387666 -40.92750303 185.99024939 -43.1875 182.1875 C-54.43829458 164.52966369 -71.99878103 152.0715557 -92 146 C-93.45695811 145.69850456 -94.91964318 145.42340136 -96.38671875 145.17578125 C-106.75497643 143.42492845 -106.75497643 143.42492845 -110.37890625 139.27734375 C-112.34802525 135.57301837 -113.75977386 131.99526722 -115 128 C-115.24282715 127.24122559 -115.4856543 126.48245117 -115.73583984 125.70068359 C-123.40102422 101.23743614 -123.91386943 74.8567875 -112.25 51.4375 C-110.90592966 48.91147099 -109.48120616 46.4477959 -108 44 C-107.32066406 42.87335938 -106.64132813 41.74671875 -105.94140625 40.5859375 C-92.07116427 19.25884983 -70.75954733 4.23352249 -45.9375 -1.4375 C-30.96148509 -4.49114748 -14.61734761 -4.67755123 0 0 Z " fill="#FECB42" transform="translate(361,99)"/>
<path d="M0 0 C1.98 1.485 1.98 1.485 4 3 C2.63053469 6.09610765 1.09335213 8.11612163 -1.36401367 10.43237305 C-2.04779587 11.08372726 -2.73157806 11.73508148 -3.43608093 12.40617371 C-4.17260391 13.10100357 -4.90912689 13.79583344 -5.66796875 14.51171875 C-7.21668781 16.00592591 -8.76417678 17.50140888 -10.31054688 18.99804688 C-12.74855449 21.34953582 -15.1927587 23.69245117 -17.65893555 26.0144043 C-20.03935207 28.26147749 -22.38651983 30.53920983 -24.73046875 32.82421875 C-25.47306442 33.50892746 -26.2156601 34.19363617 -26.98075867 34.89909363 C-30.68481609 38.45218433 -30.68481609 38.45218433 -32.27677917 43.1590271 C-32.03722554 45.51344085 -31.5652078 47.70279144 -31 50 C-30.73970158 51.60486935 -30.49388967 53.21214515 -30.26147461 54.82128906 C-30.06624962 56.07483185 -30.06624962 56.07483185 -29.86708069 57.35369873 C-27.87887099 70.51128602 -27.4849278 83.4606032 -27.5625 96.75 C-27.56656357 98.38994431 -27.56656357 98.38994431 -27.57070923 100.0630188 C-27.6318729 116.35770588 -28.27246299 132.07131617 -32 148 C-32.18723633 148.84288574 -32.37447266 149.68577148 -32.56738281 150.55419922 C-33.82168456 156.10973779 -35.3161316 161.56016638 -37 167 C-37.24057129 167.7847168 -37.48114258 168.56943359 -37.72900391 169.37792969 C-42.92819601 185.99528323 -50.16289639 201.99555008 -59 217 C-59.33 217 -59.66 217 -60 217 C-60.02578125 216.00742187 -60.0515625 215.01484375 -60.078125 213.9921875 C-60.87059263 192.47549069 -68.25796442 173.78934755 -84 159 C-99.36463093 144.7755007 -118.70837298 140.49673506 -139 140 C-138.19304687 139.11183594 -137.38609375 138.22367188 -136.5546875 137.30859375 C-133.68657365 134.02424756 -131.48543541 130.55272797 -129.1953125 126.84765625 C-122.92828328 117.67998523 -115.82191784 109.53632009 -104.47174072 107.30700684 C-84.52440321 104.95901596 -63.96723036 106.51465373 -44 108 C-44.01332367 107.21374741 -44.02664734 106.42749481 -44.04037476 105.61741638 C-44.16086824 98.18802442 -44.25208272 90.75910975 -44.31087303 83.3289938 C-44.34211498 79.50951205 -44.38445282 75.69084124 -44.45263672 71.87182617 C-44.51809066 68.18240011 -44.55375968 64.49375124 -44.56926346 60.80378914 C-44.58030378 59.39995152 -44.60186406 57.99615388 -44.63438034 56.59264946 C-44.9092701 44.2297593 -44.9092701 44.2297593 -41.46337891 40.01977539 C-40.34537025 38.9728462 -39.18815076 37.96659292 -38 37 C-37.36665741 36.4352597 -36.73331482 35.87051941 -36.08078003 35.28866577 C-34.74137462 34.09918632 -33.3895331 32.92357515 -32.02612305 31.76168823 C-28.74948328 28.91269161 -25.71233041 25.83563752 -22.65625 22.75390625 C-22.00168823 22.09792953 -21.34712646 21.44195282 -20.67272949 20.76609802 C-18.61276177 18.70059855 -16.55632634 16.63162405 -14.5 14.5625 C-13.0913795 13.14885566 -11.68252733 11.73544214 -10.2734375 10.32226562 C-6.84627867 6.88416851 -3.42227981 3.44295344 0 0 Z " fill="#0090CE" transform="translate(492,196)"/>
<path d="M0 0 C0.33 0 0.66 0 1 0 C1.20753906 0.92039062 1.41507813 1.84078125 1.62890625 2.7890625 C6.48776361 22.75307058 16.17849339 39.13807756 34 50 C51.04952792 60.08861721 67.22338193 60.58656265 86.515625 60.51757812 C89.07475176 60.52300654 91.63387539 60.53013322 94.19299316 60.53881836 C100.39039223 60.55508946 106.58753674 60.55281179 112.78493881 60.5411678 C117.82689753 60.53209127 122.86880204 60.53092758 127.9107666 60.53526306 C128.63154805 60.53587599 129.35232951 60.53648893 130.09495282 60.53712043 C131.55973786 60.53839948 133.02452288 60.53969634 134.48930788 60.5410108 C148.18719124 60.55238528 161.88496709 60.53935228 175.58283281 60.51780933 C187.30657774 60.49994118 199.03016418 60.50304617 210.75390625 60.52148438 C224.40666176 60.54294668 238.05932332 60.55128694 251.71209335 60.53903532 C253.17114002 60.53776128 254.6301867 60.53650379 256.0892334 60.53526306 C256.80689479 60.53464596 257.52455618 60.53402886 258.26396489 60.53339306 C263.29306519 60.52995618 268.32210531 60.53573236 273.35119629 60.54518127 C280.13445207 60.55764728 286.91736482 60.54862523 293.7006073 60.52560425 C296.18087776 60.5203431 298.66117353 60.52178608 301.14143372 60.53065491 C325.29925006 60.60903279 345.62149062 56.74691112 363.59716797 39.43505859 C374.40199268 28.38202001 379.58018073 14.72533943 383 0 C383.33 0 383.66 0 384 0 C385.11415273 15.87667639 378.31417821 31.99812097 368.02075195 43.90869141 C355.5203071 57.60080014 339.99176655 67.41779245 321.18073118 69.27893531 C318.32835712 69.38453663 315.48967883 69.40514827 312.63542175 69.38768005 C311.55769432 69.39306559 310.47996688 69.39845113 309.36958104 69.40399987 C305.79338701 69.4181959 302.21756752 69.41119628 298.64135742 69.40405273 C296.06297002 69.40976069 293.48458514 69.4167266 290.90620422 69.42485046 C284.65029661 69.4419744 278.39448973 69.44289177 272.13856479 69.43763756 C267.04886657 69.43358221 261.95919793 69.43505555 256.86950111 69.44038582 C255.77939315 69.44150845 255.77939315 69.44150845 254.6672628 69.44265376 C253.19047917 69.44418538 251.71369555 69.44572373 250.23691193 69.44726873 C236.41316444 69.46097089 222.58947367 69.45557245 208.7657275 69.44408352 C196.14744125 69.43415609 183.52930174 69.44708736 170.91103812 69.47101771 C157.92333805 69.49546119 144.93570616 69.50500357 131.94798356 69.49836498 C124.66890941 69.49488406 117.38994798 69.49702974 110.11089134 69.51461601 C103.26285584 69.53095707 96.41510376 69.52607501 89.56707573 69.50731087 C87.06261497 69.50363841 84.5581333 69.50669393 82.05369186 69.51719666 C59.15600029 69.6058446 39.23592908 66.65717311 22.07666016 50.19995117 C9.70635494 37.84444803 -0.07510986 21.78861802 -0.1875 3.75 C-0.125625 2.5125 -0.06375 1.275 0 0 Z " fill="#010101" transform="translate(48,419)"/>
<path d="M0 0 C-1.72418863 2.71137114 -3.47708646 4.99004398 -6 7 C-9.13760508 7.50403294 -11.93220981 6.70476261 -15 6 C-59.10106188 -1.4659278 -103.89333166 3.34836561 -145 21 C-145.76521973 21.32838867 -146.53043945 21.65677734 -147.31884766 21.99511719 C-170.7389098 32.21319278 -192.12396181 46.72618174 -210.46191406 64.50878906 C-211.99314713 65.99335598 -213.53914477 67.46136238 -215.0859375 68.9296875 C-245.07760553 97.76044963 -266.96012 139.13302525 -274.7734375 179.96484375 C-274.90532471 180.65296143 -275.03721191 181.3410791 -275.1730957 182.05004883 C-275.54537589 184.03375374 -275.90007047 186.02073476 -276.25390625 188.0078125 C-276.62322266 189.48894531 -276.62322266 189.48894531 -277 191 C-277.66 191.33 -278.32 191.66 -279 192 C-278.86722656 190.87722656 -278.73445313 189.75445312 -278.59765625 188.59765625 C-277.70859875 181.06755768 -276.82229944 173.53774489 -276 166 C-275.34 166 -274.68 166 -274 166 C-273.87753906 164.83082031 -273.75507813 163.66164062 -273.62890625 162.45703125 C-270.38156558 136.73244562 -254.65110207 106.24817466 -239 86 C-238.34 86 -237.68 86 -237 86 C-236.75894531 85.2884375 -236.51789063 84.576875 -236.26953125 83.84375 C-234.81092601 80.57647425 -232.98004756 78.24335103 -230.6875 75.5 C-229.92824219 74.5821875 -229.16898438 73.664375 -228.38671875 72.71875 C-226.02104383 70.02397137 -223.5599487 67.51027806 -221 65 C-219.93510723 63.93728973 -218.87136873 62.87342194 -217.80859375 61.80859375 C-211.05859375 55.05859375 -211.05859375 55.05859375 -209.44433594 53.44873047 C-208.27897017 52.27981896 -207.12747077 51.09709258 -205.98046875 49.91015625 C-153.36559784 -0.83673108 -69.55952041 -18.37887802 0 0 Z " fill="#189AD2" transform="translate(296,71)"/>
<path d="M0 0 C3.56311197 1.4610497 5.26621771 3.28935155 7.56933594 6.34204102 C28.82719214 34.73785802 28.82719214 34.73785802 59.57899666 49.55855656 C67.6432559 50.5560788 75.70348661 50.60834695 83.8125 50.3125 C84.53954636 50.28607044 85.26659271 50.25964088 86.01567078 50.23241043 C95.04943897 49.86782854 104.02649357 49.11741519 113 48 C113 50.64 113 53.28 113 56 C103.34383315 57.44502632 93.68229388 58.39777278 83.9375 58.9375 C83.21729424 58.97758556 82.49708847 59.01767113 81.75505829 59.05897141 C63.22883711 59.96761997 48.54863872 58.27956437 34.35546875 45.5703125 C22.99258597 35.14294794 12.95350908 23.13069372 3.59414673 10.90455627 C2.13104089 8.89934145 2.13104089 8.89934145 0 8 C0 8.66 0 9.32 0 10 C-1.50170898 11.40260315 -1.50170898 11.40260315 -3.55859375 13.04907227 C-7.36828969 16.28807634 -10.25681409 19.72816676 -13.21815491 23.73864746 C-23.74837326 37.87639625 -36.64809766 54.99479016 -55.09326172 57.81640625 C-73.49584229 60.10553507 -92.67983867 58.21841723 -111 56 C-111 53.36 -111 50.72 -111 48 C-109.9538578 48.137761 -109.9538578 48.137761 -108.88658142 48.27830505 C-99.92050492 49.39544101 -90.96233757 50.08556368 -81.9375 50.4375 C-80.85763321 50.4800334 -80.85763321 50.4800334 -79.75595093 50.52342606 C-59.98256707 51.17462727 -45.45695525 48.54892379 -30.59455681 34.91826057 C-26.72033971 31.2507375 -23.07489645 27.39533966 -19.5 23.4375 C-18.73915163 22.59575792 -18.73915163 22.59575792 -17.96293259 21.73701096 C-11.67375893 14.72663951 -5.70713585 7.49450797 0 0 Z " fill="#FEA16C" transform="translate(335,32)"/>
<path d="M0 0 C1.79244141 0.51046875 1.79244141 0.51046875 3.62109375 1.03125 C17.00963045 5.0875518 28.53707028 11.63222396 39 21 C39.89332031 21.79921875 40.78664063 22.5984375 41.70703125 23.421875 C54.62328255 35.6336035 63.61818226 50.74504538 68 68 C68.27972656 69.09441406 68.55945313 70.18882812 68.84765625 71.31640625 C70.66108476 79.00028242 71.38993199 86.1147087 71 94 C70.67 94 70.34 94 70 94 C69.82984375 92.92363281 69.6596875 91.84726563 69.484375 90.73828125 C66.08146176 69.88883824 59.5441481 51.74960903 45 36 C44.06607422 34.94619141 44.06607422 34.94619141 43.11328125 33.87109375 C26.58361868 16.16321624 1.53483338 6.2913557 -22.39550781 5.46142578 C-48.80998234 5.23506879 -73.32682477 14.70846724 -92.2578125 33.203125 C-107.59578139 48.84697931 -116.9740648 68.27649503 -120 90 C-120.33 90 -120.66 90 -121 90 C-121.60611544 73.78641207 -116.32441103 57.75666653 -108 44 C-107.32066406 42.87335938 -106.64132813 41.74671875 -105.94140625 40.5859375 C-92.07116427 19.25884983 -70.75954733 4.23352249 -45.9375 -1.4375 C-30.96148509 -4.49114748 -14.61734761 -4.67755123 0 0 Z " fill="#FFD365" transform="translate(361,99)"/>
<path d="M0 0 C0.33 0 0.66 0 1 0 C1.43847599 24.88351226 -9.26149071 47.55555942 -26.29296875 65.25390625 C-27.18628906 66.16011719 -28.07960938 67.06632812 -29 68 C-29.71800781 68.73089844 -30.43601562 69.46179688 -31.17578125 70.21484375 C-48.11840731 86.32788736 -71.84930306 94.29074833 -94.9375 94.0625 C-95.81212891 94.05798828 -96.68675781 94.05347656 -97.58789062 94.04882812 C-99.72529047 94.03714834 -101.86265463 94.01921689 -104 94 C-108 87.25 -108 87.25 -108 85 C-107.34741211 85.02618408 -106.69482422 85.05236816 -106.02246094 85.0793457 C-78.00460918 86.04843952 -53.44319158 80.52269203 -31.8125 61.625 C-30.19082284 60.10176331 -28.58626058 58.56008467 -27 57 C-25.85917969 55.87851562 -25.85917969 55.87851562 -24.6953125 54.734375 C-10.51650608 39.9177676 -2.30438259 20.27856679 0 0 Z " fill="#D1733B" transform="translate(431,202)"/>
<path d="M0 0 C0 2.64 0 5.28 0 8 C-1.14487633 7.94218102 -1.14487633 7.94218102 -2.31288147 7.88319397 C-11.89442198 7.42759481 -21.47080202 7.16031791 -31.0625 7.0625 C-31.81586388 7.05468884 -32.56922775 7.04687767 -33.34542084 7.0388298 C-56.14350948 6.19798244 -56.14350948 6.19798244 -75.9042511 15.71812439 C-80.04739186 19.93587666 -83.24199274 24.8276199 -86.31347656 29.85986328 C-88 32 -88 32 -90.02246094 32.71435547 C-91.9921875 32.71484375 -91.9921875 32.71484375 -95 32 C-94.19304687 31.11183594 -93.38609375 30.22367187 -92.5546875 29.30859375 C-89.68657365 26.02424756 -87.48543541 22.55272797 -85.1953125 18.84765625 C-65.92495437 -9.34182519 -30.15868569 -2.24348047 0 0 Z " fill="#0377A8" transform="translate(448,304)"/>
<path d="M0 0 C5.8797505 4.87724437 11.26880817 10.13886878 16.65234375 15.5546875 C17.55247696 16.45623566 18.45261017 17.35778381 19.38002014 18.28665161 C21.75072823 20.66198217 24.11924515 23.03945405 26.48669434 25.41802979 C28.91180728 27.85344717 31.33982085 30.28596912 33.76757812 32.71875 C38.51437128 37.47652769 43.25829281 42.2371538 48 47 C47.34 48.32 46.68 49.64 46 51 C42.07986537 51 41.4769451 49.88069609 38.7121582 47.1796875 C37.85149246 46.3446167 36.99082672 45.5095459 36.1040802 44.64916992 C35.17899155 43.73369385 34.25390289 42.81821777 33.30078125 41.875 C32.34107658 40.93001493 31.38129254 39.98511046 30.4214325 39.0402832 C28.40928458 37.05514831 26.40397078 35.06336559 24.40209961 33.06787109 C21.84135779 30.51797987 19.25621456 27.99447373 16.6640749 25.4765625 C14.67133035 23.53231282 12.6969099 21.57021241 10.72701073 19.60284424 C9.32348817 18.21003362 7.90139209 16.83602015 6.4790802 15.46240234 C-0.55756286 8.35070786 -0.55756286 8.35070786 -0.58129883 3.36328125 C-0.38947021 2.25339844 -0.1976416 1.14351562 0 0 Z " fill="#FFA16D" transform="translate(448,144)"/>
<path d="M0 0 C0.57168844 3.18326517 0.75338948 4.90767865 0 8 C-2.75334042 11.90607543 -6.18296056 15.11479712 -9.625 18.40625 C-10.61322995 19.37954436 -11.59969751 20.35463112 -12.58447266 21.3314209 C-15.17125947 23.88777722 -17.78115778 26.41919179 -20.39672852 28.94604492 C-23.06541372 31.53264174 -25.7113739 34.14226167 -28.359375 36.75 C-33.55102556 41.85605554 -38.76732385 46.93595949 -44 52 C-45.32 51.01 -46.64 50.02 -48 49 C-46.48269448 45.43188055 -44.39063263 43.14279567 -41.65795898 40.41503906 C-40.7604039 39.51440735 -39.86284882 38.61377563 -38.93809509 37.68585205 C-37.95760846 36.71226124 -36.97693697 35.73885657 -35.99609375 34.765625 C-34.99207206 33.76279579 -33.98842016 32.75959623 -32.98512268 31.75604248 C-30.88582091 29.65830228 -28.78320894 27.56395797 -26.67797852 25.47216797 C-23.97356819 22.78480182 -21.27584254 20.09084461 -18.58032131 17.39456558 C-16.51063778 15.32515323 -14.43836418 13.25835158 -12.36519051 11.19243622 C-11.3689867 10.19942322 -10.37339501 9.20579576 -9.37841606 8.21155548 C-7.99234338 6.82763889 -6.60258996 5.4474117 -5.21264648 4.06738281 C-4.42147934 3.28002747 -3.63031219 2.49267212 -2.81517029 1.68145752 C-1 0 -1 0 0 0 Z " fill="#EE9F72" transform="translate(224,144)"/>
<path d="M0 0 C5.5342617 4.61638638 10.67907868 9.51844757 15.77734375 14.609375 C16.58869278 15.41739563 17.40004181 16.22541626 18.23597717 17.05792236 C19.93735345 18.75426355 21.63740178 20.45193758 23.33618164 22.15087891 C25.94853123 24.76102192 28.56879838 27.36304263 31.18945312 29.96484375 C32.84423834 31.61669844 34.49855233 33.26902535 36.15234375 34.921875 C36.9397142 35.70205994 37.72708466 36.48224487 38.53831482 37.28607178 C39.2564888 38.00732239 39.97466278 38.728573 40.71459961 39.47167969 C41.3507872 40.10644226 41.98697479 40.74120483 42.6424408 41.39520264 C44 43 44 43 44 45 C41.27780151 45.72813416 41.27780151 45.72813416 38 46 C35.72195435 44.56373596 35.72195435 44.56373596 33.55517578 42.34985352 C32.73477814 41.52892715 31.91438049 40.70800079 31.06912231 39.86219788 C30.20326508 38.96021164 29.33740784 38.0582254 28.4453125 37.12890625 C27.54376434 36.21745346 26.64221619 35.30600067 25.71334839 34.3669281 C23.32039881 31.94729209 20.94921261 29.5073792 18.58197021 27.06262207 C16.16120513 24.57015991 13.72042118 22.09747563 11.28125 19.62304688 C6.50106294 14.7678589 1.7435789 9.89095344 -3 5 C-1.125 1.125 -1.125 1.125 0 0 Z " fill="#1278A2" transform="translate(180,196)"/>
<path d="M0 0 C1.32 0.99 2.64 1.98 4 3 C2.610708 6.1300133 0.99466447 8.25386617 -1.42407227 10.66699219 C-2.47009361 11.71762848 -2.47009361 11.71762848 -3.5372467 12.78948975 C-4.28936935 13.53442688 -5.041492 14.27936401 -5.81640625 15.046875 C-6.58806625 15.81807678 -7.35972626 16.58927856 -8.1547699 17.3838501 C-9.78400138 19.01006367 -11.41565946 20.63384926 -13.04956055 22.25537109 C-15.56162737 24.74913373 -18.06555244 27.25085368 -20.56835938 29.75390625 C-22.15056949 31.33120295 -23.73323605 32.90804196 -25.31640625 34.484375 C-26.07055313 35.23740906 -26.82470001 35.99044312 -27.60169983 36.76629639 C-28.29589523 37.45411194 -28.99009064 38.14192749 -29.70532227 38.85058594 C-30.31884048 39.46029236 -30.9323587 40.06999878 -31.56446838 40.69818115 C-33 42 -33 42 -34 42 C-34.89040048 39.2724639 -35.32392431 37.79243536 -35 35 C-32.93616022 31.77341122 -30.21263159 29.28292147 -27.44140625 26.66015625 C-26.66312973 25.89319931 -25.88485321 25.12624237 -25.08299255 24.33604431 C-22.59430697 21.89212044 -20.07926211 19.47746805 -17.5625 17.0625 C-15.86993201 15.41005789 -14.17915304 13.75578119 -12.49023438 12.09960938 C-8.34734227 8.04489426 -4.18246134 4.01386496 0 0 Z " fill="#0E0D08" transform="translate(492,196)"/>
<path d="M0 0 C0.33 0 0.66 0 1 0 C2.00904889 32.45773921 -12.89800416 67.47682107 -29 95 C-29.33 95 -29.66 95 -30 95 C-30.73183216 86.85836722 -28.50153445 82.17141133 -24.5 75.1875 C-11.49251107 51.34362789 -4.31279026 26.74007389 0 0 Z " fill="#0B100D" transform="translate(462,318)"/>
<path d="M0 0 C0.99 0.495 0.99 0.495 2 1 C2.55908203 2.84399414 2.55908203 2.84399414 3.0078125 5.28515625 C3.18497803 6.19539551 3.36214355 7.10563477 3.54467773 8.04345703 C3.73618408 9.03974121 3.92769043 10.03602539 4.125 11.0625 C9.05229574 34.74227592 17.45514322 59.68271483 31 80 C31.25760279 82.69452521 31.08900053 85.28548375 31 88 C11.14701675 69.55568569 3.43264355 28.58151417 0 3 C0 2.01 0 1.02 0 0 Z " fill="#0B0E0B" transform="translate(17,324)"/>
<path d="M0 0 C0.33 0 0.66 0 1 0 C1.17015625 0.94359375 1.3403125 1.8871875 1.515625 2.859375 C3.66682138 14.25613879 6.51921118 24.74961599 12.046875 35.0390625 C13 37 13 37 13 39 C10.69921875 38.4609375 10.69921875 38.4609375 8 37 C6.66748347 34.47934797 5.71321217 32.2936288 4.8125 29.625 C4.55839355 28.90691162 4.30428711 28.18882324 4.04248047 27.44897461 C0.94266467 18.37065413 -0.31929434 9.57883017 0 0 Z " fill="#D6793D" transform="translate(240,202)"/>
<path d="M0 0 C2.13090552 3.19635828 2.49741223 4.96437661 3.0703125 8.70703125 C3.2446582 9.84551514 3.41900391 10.98399902 3.59863281 12.15698242 C3.77233398 13.36330322 3.94603516 14.56962402 4.125 15.8125 C4.30385742 17.03106689 4.48271484 18.24963379 4.66699219 19.50512695 C5.82088329 27.74006312 6.55360837 35.68049648 6 44 C5.67 44 5.34 44 5 44 C4.88930176 43.16863525 4.77860352 42.33727051 4.66455078 41.48071289 C4.2464279 38.35479838 3.82479182 35.22938221 3.40087891 32.10424805 C3.13048031 30.10305913 2.86402728 28.10133836 2.59765625 26.09960938 C1.67346145 19.30506613 0.56587695 12.67411554 -1 6 C-1.1875 3 -1.1875 3 -1 1 C-0.67 0.67 -0.34 0.34 0 0 Z " fill="#1599D1" transform="translate(458,238)"/>
<path d="M0 0 C0.66 0.33 1.32 0.66 2 1 C2.27734375 3.7265625 2.27734375 3.7265625 2 7 C0.06640625 9.3359375 0.06640625 9.3359375 -2.4375 11.375 C-3.67306641 12.40753906 -3.67306641 12.40753906 -4.93359375 13.4609375 C-7 15 -7 15 -8 15 C-8.42056594 11.56537817 -8.63981991 9.00514918 -6.734375 6.01171875 C-2.80099278 1.40049639 -2.80099278 1.40049639 0 0 Z " fill="#0877A6" transform="translate(456,232)"/>
<path d="M0 0 C0.33 0 0.66 0 1 0 C2.32 5.28 3.64 10.56 5 16 C4.01 16.33 3.02 16.66 2 17 C0.30167391 11.16200408 -0.25287193 6.06892629 0 0 Z " fill="#0C0C0B" transform="translate(48,419)"/>
<path d="M0 0 C1.29065057 3.8719517 0.22324098 6.44232601 -0.9375 10.1875 C-1.23043945 11.16879883 -1.23043945 11.16879883 -1.52929688 12.16992188 C-2.01182563 13.78227407 -2.50490205 15.39146289 -3 17 C-3.66 16.34 -4.32 15.68 -5 15 C-4.73271406 9.52063832 -2.32653094 4.86948337 0 0 Z " fill="#090905" transform="translate(458,346)"/>
</svg>
